<svg width="100" height="97" viewBox="0 0 100 97" fill="none" xmlns="http://www.w3.org/2000/svg">
<path d="M51.816 69.578L60.0171 58H98.3155L87.4064 78H1.68454L12.5936 58H41.5L50.2 69.6L51.0231 70.6975L51.816 69.578Z" fill="#0D0D0D" stroke="#0D0D0D" stroke-width="2"/>
<path d="M1.68454 87L12.5936 67H98.3155L87.4064 87H1.68454Z" stroke="#0D0D0D" stroke-width="2"/>
<path d="M1.68454 96L12.5936 76H98.3155L87.4064 96H1.68454Z" stroke="#0D0D0D" stroke-width="2"/>
<path d="M72.5 23C72.5 25.9312 71.6238 29.8982 70.1096 34.3959C68.6052 38.8649 66.5093 43.7473 64.1573 48.4697C61.8058 53.1911 59.2105 57.7281 56.7168 61.507C54.6222 64.681 52.6413 67.2555 50.9714 68.959C49.221 67.2627 47.1905 64.6874 45.0688 61.5017C42.5556 57.7284 39.9782 53.196 37.6587 48.4768C35.339 43.7571 33.2897 38.8758 31.8237 34.4069C30.3487 29.9109 29.5 25.9387 29.5 23C29.5 11.1259 39.1259 1.5 51 1.5C62.8741 1.5 72.5 11.1259 72.5 23Z" fill="black" stroke="black" stroke-width="3"/>
<path d="M65 23C65 30.732 58.732 37 51 37C43.268 37 37 30.732 37 23C37 15.268 43.268 9 51 9C58.732 9 65 15.268 65 23Z" fill="#662EDC"/>
</svg>
