<svg width="100" height="99" viewBox="0 0 100 99" fill="none" xmlns="http://www.w3.org/2000/svg">
<path d="M50.8944 69.4472L55.618 60H98.3155L87.4064 80H1.68454L12.5936 60H44.8534L49.0881 69.4104L49.9524 71.3312L50.8944 69.4472Z" fill="#0D0D0D" stroke="#0D0D0D" stroke-width="2"/>
<path d="M1.68454 89L12.5936 69H98.3155L87.4064 89H1.68454Z" stroke="#0D0D0D" stroke-width="2"/>
<path d="M1.68454 98L12.5936 78H98.3155L87.4064 98H1.68454Z" stroke="#0D0D0D" stroke-width="2"/>
<circle cx="50" cy="23" r="10" fill="#3253FF"/>
<path d="M69 24L50 70L31 24" stroke="black" stroke-width="3"/>
<path d="M69 24.5C69 18.5326 66.9982 12.8097 63.435 8.5901C59.8718 4.37053 55.0391 2 50 2C44.9609 2 40.1282 4.37053 36.565 8.5901C33.0018 12.8097 31 18.5326 31 24.5" stroke="black" stroke-width="3"/>
</svg>
