<svg width="100" height="102" viewBox="0 0 100 102" fill="none" xmlns="http://www.w3.org/2000/svg">
<path d="M1.68454 83L12.5936 63H98.3155L87.4064 83H1.68454Z" fill="#0D0D0D" stroke="#0D0D0D" stroke-width="2"/>
<path d="M1.68454 92L12.5936 72H98.3155L87.4064 92H1.68454Z" stroke="#0D0D0D" stroke-width="2"/>
<path d="M1.68454 101L12.5936 81H98.3155L87.4064 101H1.68454Z" stroke="#0D0D0D" stroke-width="2"/>
<path d="M73 23C73 35.7025 58 64 50 71C41.5 64 27 35.7025 27 23C27 10.2975 37.2975 0 50 0C62.7025 0 73 10.2975 73 23Z" fill="black"/>
<path d="M67 23C67 32.3888 59.3888 40 50 40C40.6112 40 33 32.3888 33 23C33 13.6112 40.6112 6 50 6C59.3888 6 67 13.6112 67 23Z" fill="#CCA828"/>
</svg>
