<svg width="100" height="99" viewBox="0 0 100 99" fill="none" xmlns="http://www.w3.org/2000/svg">
<path d="M50.7619 69.6476L58.9624 60H98.3155L87.4064 80H1.68454L12.5936 60H41.5194L49.2191 69.6247L49.9766 70.5716L50.7619 69.6476Z" fill="#0D0D0D" stroke="#0D0D0D" stroke-width="2"/>
<path d="M1.68454 89L12.5936 69H98.3155L87.4064 89H1.68454Z" stroke="#0D0D0D" stroke-width="2"/>
<path d="M1.68454 98L12.5936 78H98.3155L87.4064 98H1.68454Z" stroke="#0D0D0D" stroke-width="2"/>
<path d="M70.5 22.6462C70.5 25.3094 69.7379 28.7639 68.4006 32.6201C67.0712 36.4533 65.2079 40.5868 63.0858 44.5759C59.1375 51.9981 54.41 58.7041 50.7235 62.0553C46.8091 58.7111 41.8448 51.9909 37.7145 44.5522C35.5004 40.5645 33.5611 36.4331 32.1792 32.6026C30.7887 28.7481 30 25.3 30 22.6462C30 11.7601 38.8214 1.5 50.7528 1.5C62.5962 1.5 70.5 11.6635 70.5 22.6462Z" fill="black" stroke="black" stroke-width="3"/>
<path d="M64 21.5C64 28.9559 57.9558 35 50.5 35C43.0442 35 37 28.9559 37 21.5C37 14.0442 43.0442 8.00001 50.5 8.00001C57.9558 8.00001 64 14.0442 64 21.5Z" fill="#FFE600"/>
</svg>
